<?xml version="1.0" standalone="no"?>
<!DOCTYPE svg PUBLIC "-//W3C//DTD SVG 20010904//EN"
 "http://www.w3.org/TR/2001/REC-SVG-20010904/DTD/svg10.dtd">
<svg version="1.0" xmlns="http://www.w3.org/2000/svg"
 width="6667.000000pt" height="804.000000pt" viewBox="0 0 6667.000000 804.000000"
 preserveAspectRatio="xMidYMid meet">

<g transform="translate(0.000000,804.000000) scale(0.100000,-0.100000)"
fill="#000000" stroke="none">
<path d="M32330 4225 l0 -2355 440 0 440 0 0 2355 0 2355 -440 0 -440 0 0
-2355z"/>
<path d="M48960 4225 l0 -2355 440 0 440 0 0 573 c0 509 11 926 25 966 8 22
34 -7 154 -169 135 -182 279 -389 650 -937 l292 -433 500 0 c274 0 499 2 499
5 0 3 -215 315 -478 693 -660 948 -687 989 -678 1028 7 27 237 371 501 749
308 441 576 828 586 847 7 13 4 20 -13 29 -29 16 -305 28 -654 28 -289 1 -291
1 -311 -21 -11 -13 -138 -198 -283 -413 -385 -569 -587 -854 -703 -989 -46
-53 -51 -56 -59 -37 -16 45 -28 763 -28 1754 l0 1037 -440 0 -440 0 0 -2355z"/>
<path d="M14700 4101 l0 -2441 1231 0 1232 0 70 -57 c80 -66 506 -446 745
-666 89 -82 168 -147 175 -144 6 3 226 199 487 436 l475 431 1238 0 1237 0 0
1568 c-1 1843 -11 2457 -43 2489 -17 16 -34 3 -471 -382 l-205 -180 0 -1392
-1 -1393 -985 0 -985 0 -212 -196 c-316 -291 -515 -454 -554 -454 -19 0 -171
128 -486 411 l-267 239 -1001 0 -1000 0 0 1746 0 1745 2018 -4 c2100 -5 2212
-8 2212 -49 0 -18 -228 -245 -440 -438 -481 -439 -974 -850 -1035 -866 -41
-10 -103 34 -254 179 -139 134 -513 468 -531 475 -11 4 -370 -317 -432 -387
-27 -29 -48 -59 -48 -66 0 -26 871 -832 1149 -1063 81 -68 100 -73 160 -43
112 58 448 345 1306 1116 105 94 395 353 645 575 1261 1120 1373 1222 1354
1234 -13 7 -1033 12 -3401 14 l-3383 4 0 -2441z"/>
<path d="M24330 4120 l0 -2250 460 0 460 0 0 936 0 937 598 -7 c328 -3 744 -9
923 -12 l326 -7 6 -111 c4 -61 10 -477 13 -923 l7 -813 439 0 438 0 0 2250 0
2250 -440 0 -440 0 0 -915 0 -915 -935 0 -935 0 0 915 0 915 -460 0 -460 0 0
-2250z"/>
<path d="M37830 4120 l0 -2250 818 0 c1103 0 1404 18 1712 101 337 90 633 292
822 559 138 196 252 427 283 577 51 248 70 542 70 1113 0 424 -3 514 -18 630
-103 757 -505 1244 -1189 1441 -234 67 -473 79 -1635 79 l-863 0 0 -2250z
m1460 1530 c644 -26 797 -61 993 -228 144 -123 274 -321 306 -467 28 -130 35
-396 25 -1050 l-10 -650 -84 -135 c-135 -214 -241 -312 -440 -404 -143 -66
-285 -79 -957 -92 l-373 -7 0 1528 0 1527 143 -6 c78 -4 257 -11 397 -16z"/>
<path d="M29955 5294 c-576 -78 -1011 -420 -1193 -936 -65 -183 -67 -208 -67
-783 0 -446 3 -537 18 -637 49 -322 133 -493 352 -714 255 -258 576 -397 1002
-435 392 -34 843 85 1124 296 162 121 345 339 420 500 32 68 59 155 59 192 0
38 -79 47 -395 48 -336 0 -339 0 -428 -112 -77 -97 -143 -154 -234 -201 -199
-104 -434 -119 -645 -42 -277 101 -409 300 -443 665 -4 39 -9 78 -11 88 -5 16
52 17 1101 17 l1107 0 -6 188 c-26 718 -30 776 -76 914 -201 602 -750 972
-1436 967 -82 -1 -194 -7 -249 -15z m483 -664 c118 -24 170 -49 246 -120 76
-72 128 -158 166 -276 26 -80 70 -301 70 -348 0 -17 -40 -17 -657 -13 -470 3
-669 7 -695 16 -34 11 -56 40 -45 58 3 5 17 72 31 149 28 155 47 207 112 304
108 164 204 229 372 250 95 12 292 3 400 -20z"/>
<path d="M43387 5299 c-356 -29 -688 -179 -927 -419 -236 -237 -358 -514 -401
-910 -14 -129 -13 -637 1 -857 16 -251 36 -333 134 -536 135 -281 365 -515
619 -631 229 -105 499 -156 818 -156 345 0 579 66 832 234 162 107 306 249
410 406 82 125 165 288 169 335 3 28 0 30 -47 43 -68 18 -536 28 -630 14 -84
-14 -108 -30 -162 -113 -82 -126 -216 -215 -388 -260 -104 -27 -298 -30 -397
-6 -143 35 -294 125 -370 220 -49 62 -102 170 -122 249 -8 31 -22 108 -31 170
-8 62 -18 123 -20 136 l-5 22 1110 0 1110 0 0 244 c0 582 -70 920 -251 1213
-67 107 -234 280 -339 350 -227 151 -472 230 -791 252 -159 12 -180 12 -322 0z
m421 -664 c213 -37 342 -157 421 -393 18 -53 71 -322 71 -359 0 -10 -138 -13
-691 -13 l-692 0 6 133 c6 145 22 216 71 322 90 193 230 301 420 325 90 11
281 4 394 -15z"/>
<path d="M35550 5270 c-183 -18 -302 -62 -469 -175 -53 -35 -138 -100 -188
-145 l-93 -81 0 165 0 166 -420 0 -420 0 0 -2230 0 -2230 440 0 440 0 2 729 3
729 121 -102 c141 -117 234 -174 368 -221 163 -59 278 -78 461 -78 298 -1 554
73 790 228 336 221 521 535 597 1020 20 126 22 177 22 500 0 289 -3 385 -17
485 -58 412 -176 661 -428 905 -249 241 -489 327 -949 339 -96 3 -213 1 -260
-4z m236 -715 c32 -8 96 -33 142 -56 101 -49 205 -148 275 -260 100 -161 111
-244 104 -754 -6 -379 -14 -463 -58 -579 -62 -168 -261 -323 -479 -376 -116
-27 -287 -28 -394 0 -130 33 -200 74 -302 175 -75 74 -99 105 -133 175 -77
159 -101 313 -101 658 0 438 39 610 175 774 115 138 278 227 470 258 76 11
224 4 301 -15z"/>
<path d="M46645 5273 c-421 -38 -789 -279 -955 -624 -22 -46 -52 -129 -66
-184 -23 -86 -27 -120 -27 -250 0 -173 17 -256 82 -390 75 -157 189 -275 340
-354 113 -59 384 -137 881 -256 326 -77 492 -126 570 -165 134 -68 190 -232
126 -365 -55 -111 -209 -214 -376 -252 -112 -25 -345 -22 -470 6 -251 56 -393
180 -410 358 -4 41 -12 79 -18 85 -22 22 -104 28 -434 28 l-348 0 0 -102 c2
-339 153 -595 466 -785 159 -97 392 -174 629 -209 751 -109 1467 181 1700 689
98 214 114 562 36 777 -107 292 -309 400 -1131 605 -352 88 -599 164 -699 215
-75 38 -116 118 -115 226 1 151 96 265 259 309 45 13 102 17 225 16 272 0 409
-37 495 -133 51 -57 77 -120 101 -247 l18 -91 376 0 375 0 -7 118 c-15 211
-55 344 -150 489 -114 174 -329 337 -542 410 -86 29 -247 59 -385 73 -95 9
-454 11 -546 3z"/>
</g>
</svg>
