<?xml version="1.0" standalone="no"?>
<!DOCTYPE svg PUBLIC "-//W3C//DTD SVG 20010904//EN"
 "http://www.w3.org/TR/2001/REC-SVG-20010904/DTD/svg10.dtd">
<svg version="1.0" xmlns="http://www.w3.org/2000/svg"
 width="1600.000000pt" height="1200.000000pt" viewBox="0 0 1600.000000 1200.000000"
 preserveAspectRatio="xMidYMid meet">

<g transform="translate(0.000000,1200.000000) scale(0.100000,-0.100000)"
fill="#000000" stroke="none">
<path d="M7760 6135 l0 -565 105 0 105 0 0 565 0 565 -105 0 -105 0 0 -565z"/>
<path d="M11750 6135 l0 -565 105 0 105 0 0 184 c0 102 4 187 8 190 4 2 65
-81 135 -185 l128 -189 120 0 120 0 -68 98 c-37 53 -100 144 -140 201 -40 57
-73 108 -73 113 0 5 58 91 128 191 70 100 131 188 135 195 6 9 -18 12 -112 12
l-120 0 -122 -180 c-67 -98 -126 -177 -131 -174 -4 3 -8 156 -8 340 l0 334
-105 0 -105 0 0 -565z"/>
<path d="M3530 6105 l0 -585 296 0 296 0 38 -32 c20 -18 73 -65 116 -104 l79
-72 115 104 115 104 297 0 298 0 0 491 c0 389 -3 489 -12 483 -7 -4 -46 -37
-85 -73 l-73 -64 0 -334 0 -333 -236 0 -236 0 -88 -81 c-49 -45 -93 -79 -99
-77 -5 1 -48 38 -96 81 l-86 77 -239 0 -240 0 0 420 0 420 511 0 c442 0 510
-2 507 -15 -5 -22 -337 -315 -357 -315 -10 0 -26 10 -37 21 -10 12 -49 48 -85
80 l-66 58 -56 -50 c-32 -28 -57 -54 -57 -58 0 -6 234 -222 286 -263 22 -18
26 -14 420 339 220 195 401 357 403 359 2 2 -363 4 -812 4 l-817 0 0 -585z"/>
<path d="M5840 6110 l0 -540 110 0 110 0 0 225 0 225 223 -2 222 -3 3 -222 2
-223 105 0 105 0 0 540 0 540 -105 0 -105 0 0 -220 0 -220 -225 0 -225 0 0
220 0 220 -110 0 -110 0 0 -540z"/>
<path d="M9080 6110 l0 -540 248 0 c315 0 391 15 499 97 41 31 95 113 118 178
23 65 33 346 16 455 -28 178 -128 291 -296 335 -46 12 -118 15 -322 15 l-263
0 0 -540z m538 345 c53 -22 106 -82 122 -139 8 -28 11 -104 8 -228 l-3 -185
-30 -48 c-21 -35 -45 -56 -80 -74 -45 -24 -62 -26 -192 -29 l-143 -3 0 367 0
367 138 -5 c99 -4 149 -10 180 -23z"/>
<path d="M7171 6389 c-122 -21 -219 -97 -262 -205 -21 -53 -24 -74 -24 -214 0
-187 16 -240 95 -320 119 -118 348 -134 497 -34 63 43 123 128 123 175 0 5
-40 9 -88 9 -87 0 -89 0 -111 -31 -49 -66 -152 -87 -231 -46 -49 25 -75 66
-83 135 l-5 42 265 0 265 0 -4 124 c-4 119 -6 128 -38 192 -69 135 -226 203
-399 173z m174 -169 c37 -23 60 -64 70 -127 l7 -43 -170 0 c-157 0 -170 1
-167 18 2 9 7 34 10 54 6 41 46 95 79 108 41 17 137 11 171 -10z"/>
<path d="M10380 6389 c-110 -19 -201 -83 -248 -176 -34 -66 -45 -141 -40 -280
3 -122 6 -134 36 -196 58 -117 155 -176 308 -185 123 -7 205 21 287 97 36 33
87 116 87 141 0 6 -35 10 -92 10 -92 0 -93 0 -110 -29 -36 -64 -151 -89 -228
-49 -51 27 -76 63 -85 131 l-7 47 266 0 266 0 0 93 c0 208 -73 330 -228 382
-54 19 -149 25 -212 14z m178 -169 c36 -22 58 -63 68 -129 l7 -41 -167 0 -166
0 0 34 c0 63 37 127 85 146 40 17 138 11 173 -10z"/>
<path d="M8474 6374 c-23 -8 -60 -31 -83 -50 l-41 -36 0 41 0 41 -100 0 -100
0 0 -535 0 -535 105 0 105 0 0 176 0 176 41 -35 c101 -87 279 -86 395 2 94 71
134 175 134 347 0 170 -26 256 -99 331 -59 62 -120 86 -226 90 -62 2 -103 -2
-131 -13z m156 -175 c21 -12 48 -40 61 -63 22 -37 24 -53 24 -166 0 -136 -10
-169 -61 -209 -64 -50 -168 -52 -225 -3 -52 43 -69 93 -69 208 0 113 10 156
49 198 53 59 151 74 221 35z"/>
<path d="M11122 6372 c-101 -37 -167 -113 -178 -209 -12 -96 32 -179 112 -214
22 -10 108 -34 190 -53 115 -27 153 -39 166 -56 53 -65 -17 -140 -129 -140
-98 0 -163 39 -163 96 0 24 -2 24 -95 24 l-95 0 0 -37 c1 -123 119 -215 293
-229 172 -15 326 55 378 171 21 45 25 138 8 182 -27 73 -75 98 -278 148 -96
24 -161 45 -173 57 -24 24 -23 73 2 98 26 26 59 33 131 28 69 -5 97 -26 108
-79 l7 -34 89 0 90 0 -3 43 c-5 84 -58 153 -147 194 -71 31 -237 37 -313 10z"/>
</g>
</svg>
